#!OML:ASF E:\Style3\Style3.ASF
:FULLY-SPECIFIED
:DEGREES
3041
root 0.276781 17.793 0.470244 -167.211 79.3269 -179.189
lowerback -7.76085 -1.04745 -2.52235
upperback -8.51391 -0.859614 0.341347
thorax -4.45932 -0.103789 1.71962
lowerneck -1.53917 -2.52163 -8.20733
upperneck 6.48348 -3.83868 15.0808
head 2.59969 -1.59327 5.8538
rclavicle 7.8023e-015 -7.35503e-015
rhumerus 55.5856 -28.2166 -42.651
rradius 114.922
rwrist -79.9265
rhand -3.73479 14.4721
rfingers 7.12502
rthumb 22.0086 -14.2957
lclavicle 7.8023e-015 -7.35503e-015
lhumerus 64.6771 22.9205 34.2649
lradius 119.715
lwrist 101.176
lhand -4.69977 27.0605
lfingers 7.12502
lthumb 21.0819 55.9345
rfemur -12.5565 8.77812 16.7425
rtibia 18.5692
rfoot -13.7604 -27.025
rtoes -11.9311
lfemur -5.94839 -22.1961 -12.2177
ltibia -3.18055e-015
lfoot -5.60082 16.8494
ltoes -23.4039
3042
root 0.277871 17.7928 0.46859 -167.186 79.3263 -179.188
lowerback -7.79361 -1.0406 -2.5071
upperback -8.52411 -0.848659 0.347651
thorax -4.45261 -0.0982758 1.71773
lowerneck -1.43175 -2.56034 -8.24286
upperneck 6.4534 -3.89145 15.0606
head 2.57934 -1.62613 5.85254
rclavicle 9.91439e-015 6.4605e-015
rhumerus 55.5734 -28.0997 -42.4022
rradius 114.885
rwrist -80.065
rhand -3.09925 13.3829
rfingers 7.12502
rthumb 22.6187 -15.3118
lclavicle 9.91439e-015 6.4605e-015
lhumerus 64.8343 23.2701 34.4186
lradius 119.661
lwrist 101.338
lhand -4.44235 27.3608
lfingers 7.12502
lthumb 21.3291 56.207
rfemur -12.5668 8.75822 16.735
rtibia 18.5691
rfoot -14.1609 -26.9439
rtoes -10.8994
lfemur -5.97642 -22.1953 -12.2171
ltibia -1.90833e-014
lfoot -5.55369 16.8866
ltoes -23.6994
3043
root 0.28021 17.7932 0.465609 -167.099 79.3132 -179.112
lowerback -7.82735 -1.04816 -2.44688
upperback -8.53671 -0.85859 0.358337
thorax -4.44725 -0.105424 1.69439
lowerneck -1.4084 -2.59205 -8.29356
upperneck 6.54647 -3.94229 15.0348
head 2.60913 -1.65178 5.852
rclavicle 6.03808e-015 5.86415e-015
rhumerus 55.6606 -27.8004 -42.1487
rradius 114.731
rwrist -80.0851
rhand -2.10783 12.6349
rfingers 7.12502
rthumb 23.57 -15.9407
lclavicle 6.03808e-015 5.86415e-015
lhumerus 64.9762 23.6322 34.5169
lradius 119.514
lwrist 101.426
lhand -4.03584 27.3191
lfingers 7.12502
lthumb 21.7195 56.1206
rfemur -12.5518 8.76922 16.7461
rtibia 18.5681
rfoot -14.504 -26.9091
rtoes -10.0552
lfemur -5.97685 -22.2066 -12.2132
ltibia -1.27222e-014
lfoot -5.53482 16.8649
ltoes -23.7216
3044
root 0.281798 17.7931 0.46395 -167.409 79.3146 -179.443
lowerback -7.85022 -1.04114 -2.47534
upperback -8.54917 -0.846537 0.335758
thorax -4.44846 -0.0977535 1.6871
lowerneck -1.44284 -2.63994 -8.39973
upperneck 6.6965 -4.0213 15.1236
head 2.67196 -1.6844 5.89621
rclavicle -1.70955e-014 -6.85807e-015
rhumerus 55.6942 -27.5997 -41.7986
rradius 114.387
rwrist -79.5919
rhand -0.328557 12.2771
rfingers 7.12502
rthumb 25.2756 -16.0685
lclavicle -1.70955e-014 -6.85807e-015
lhumerus 65.2487 23.9458 34.7156
lradius 119.28
lwrist 101.197
lhand -3.10839 27.2012
lfingers 7.12502
lthumb 22.6099 55.897
rfemur -12.5585 8.73223 16.6704
rtibia 18.5592
rfoot -14.5119 -26.8933
rtoes -10.1504
lfemur -5.97976 -22.2195 -12.2817
ltibia -2.06736e-014
lfoot -5.6227 16.858
ltoes -23.4943
3045
root 0.28206 17.793 0.462259 -167.43 79.3081 -179.485
lowerback -7.8762 -1.00894 -2.44321
upperback -8.5645 -0.802877 0.319001
thorax -4.45296 -0.0770587 1.65318
lowerneck -1.41601 -2.71076 -8.48236
upperneck 6.82093 -4.12969 15.1527
head 2.71915 -1.73621 5.91673
rclavicle 1.40889e-014 -1.14301e-014
rhumerus 55.6056 -27.4972 -41.2907
rradius 114.045
rwrist -79.0492
rhand 1.53591 12.2212
rfingers 7.12502
rthumb 27.0607 -15.8598
lclavicle 1.40889e-014 -1.14301e-014
lhumerus 65.5763 24.2104 34.9296
lradius 119.019
lwrist 100.796
lhand -1.97475 27.1349
lfingers 7.12502
lthumb 23.6976 55.6941
rfemur -12.5664 8.76987 16.6522
rtibia 18.5368
rfoot -14.5011 -26.9394
rtoes -10.1422
lfemur -6.00622 -22.2251 -12.2803
ltibia 6.36111e-015
lfoot -5.6583 16.8449
ltoes -23.3146
3046
root 0.282141 17.7938 0.460365 -167.332 79.2834 -179.4
lowerback -7.87704 -0.986285 -2.37244
upperback -8.58858 -0.774171 0.30218
thorax -4.4803 -0.0654725 1.59722
lowerneck -1.3208 -2.76438 -8.54578
upperneck 6.87646 -4.21184 15.1877
head 2.73117 -1.77886 5.93718
rclavicle -7.03201e-015 1.09332e-015
rhumerus 55.4824 -27.3711 -40.6742
rradius 113.707
rwrist -78.7109
rhand 3.19533 12.4954
rfingers 7.12502
rthumb 28.6472 -15.3285
lclavicle -7.03201e-015 1.09332e-015
lhumerus 65.797 24.5087 34.9632
lradius 118.782
lwrist 100.437
lhand -1.07711 26.8942
lfingers 7.12502
lthumb 24.5583 55.3392
rfemur -12.571 8.75208 16.6679
rtibia 18.5323
rfoot -14.5606 -26.9383
rtoes -10.0204
lfemur -6.03102 -22.2442 -12.2548
ltibia -2.38542e-014
lfoot -5.63347 16.859
ltoes -23.1932
3047
root 0.281875 17.7938 0.458666 -167.241 79.2648 -179.337
lowerback -7.88055 -0.967677 -2.30913
upperback -8.60894 -0.750377 0.298858
thorax -4.5017 -0.0557967 1.55923
lowerneck -1.29483 -2.81141 -8.60492
upperneck 6.96773 -4.2848 15.2037
head 2.76392 -1.81404 5.95059
rclavicle -1.16041e-014 1.39149e-015
rhumerus 55.3886 -27.1933 -39.9868
rradius 113.395
rwrist -78.4113
rhand 4.87953 12.6938
rfingers 7.12502
rthumb 30.2551 -14.847
lclavicle -1.16041e-014 1.39149e-015
lhumerus 66.0491 24.8232 35.0467
lradius 118.433
lwrist 100.199
lhand -0.0657176 27.0629
lfingers 7.12502
lthumb 25.5274 55.3727
rfemur -12.5976 8.71113 16.6717
rtibia 18.5393
rfoot -14.6652 -26.8679
rtoes -9.50297
lfemur -6.07263 -22.2556 -12.2264
ltibia -9.54166e-015
lfoot -5.63664 16.8626
ltoes -23.0754
3048
root 0.282902 17.7943 0.45713 -167.544 79.2996 -179.673
lowerback -7.909 -0.972389 -2.34195
upperback -8.62593 -0.753022 0.293146
thorax -4.50375 -0.0545691 1.57132
lowerneck -1.16387 -2.82545 -8.56993
upperneck 6.96414 -4.30505 15.0946
head 2.74024 -1.83222 5.91055
rclavicle -1.80149e-014 -1.39149e-015
rhumerus 55.4406 -26.9739 -39.4325
rradius 113.232
rwrist -78.4041
rhand 6.51062 12.2949
rfingers 7.12502
rthumb 31.8097 -14.949
lclavicle -1.80149e-014 -1.39149e-015
lhumerus 66.2761 25.1999 35.1042
lradius 117.941
lwrist 100.029
lhand 1.14062 27.4207
lfingers 7.12502
lthumb 26.6824 55.5599
rfemur -12.6287 8.68162 16.5874
rtibia 18.5417
rfoot -14.6712 -26.8263
rtoes -9.52668
lfemur -6.08826 -22.2344 -12.298
ltibia 1.43125e-014
lfoot -5.70496 16.8508
ltoes -22.9207
3049
root 0.284541 17.7936 0.455676 -168.069 79.3371 -180.255
lowerback -7.97022 -0.985385 -2.42118
upperback -8.65067 -0.762798 0.279185
thorax -4.49529 -0.0541639 1.60022
lowerneck -0.903874 -2.83975 -8.48521
upperneck 6.83532 -4.31643 14.8845
head 2.65403 -1.85703 5.83116
rclavicle 1.01629e-014 6.95746e-015
rhumerus 55.5533 -26.739 -38.9387
rradius 113.18
rwrist -78.5567
rhand 7.90267 11.7061
rfingers 7.12502
rthumb 33.1345 -15.2656
lclavicle 1.01629e-014 6.95746e-015
lhumerus 66.548 25.5603 35.1713
lradius 117.342
lwrist 99.8964
lhand 2.22307 26.8831
lfingers 7.12502
lthumb 27.7179 54.8601
rfemur -12.6955 8.68603 16.4502
rtibia 18.5695
rfoot -14.6155 -26.8461
rtoes -10.0395
lfemur -6.12863 -22.2182 -12.4121
ltibia 9.54166e-015
lfoot -5.71896 16.8547
ltoes -23.0606
3050
root 0.286216 17.7939 0.453998 -168 79.3464 -180.226
lowerback -8.01738 -0.963261 -2.36381
upperback -8.68177 -0.731727 0.263045
thorax -4.50439 -0.0402866 1.55216
lowerneck -0.7879 -2.87002 -8.42411
upperneck 6.8946 -4.36297 14.7603
head 2.65363 -1.88498 5.78133
rclavicle 1.2424e-015 5.86415e-015
rhumerus 55.5626 -26.5698 -38.3181
rradius 113.054
rwrist -78.66
rhand 9.22075 11.5142
rfingers 7.12502
rthumb 34.3869 -15.1828
lclavicle 1.2424e-015 5.86415e-015
lhumerus 66.9019 25.8603 35.2396
lradius 116.635
lwrist 99.4918
lhand 3.39187 26.5614
lfingers 7.12502
lthumb 28.835 54.3534
rfemur -12.7542 8.74647 16.4408
rtibia 18.6074
rfoot -14.6522 -26.9043
rtoes -10.2045
lfemur -6.16718 -22.2038 -12.3986
ltibia -4.77083e-015
lfoot -5.70277 16.8538
ltoes -23.0818
3051
root 0.287393 17.7952 0.453408 -168.119 79.3479 -180.401
lowerback -8.07122 -0.959274 -2.37004
upperback -8.70894 -0.721737 0.257616
thorax -4.50402 -0.0334146 1.54994
lowerneck -0.829579 -2.90545 -8.4773
upperneck 7.11402 -4.42665 14.7377
head 2.73316 -1.91055 5.78154
rclavicle 5.18083e-015 8.74653e-015
rhumerus 55.6189 -26.3392 -37.6473
rradius 112.867
rwrist -78.6046
rhand 10.585 11.8914
rfingers 7.12502
rthumb 35.681 -14.5028
lclavicle 5.18083e-015 8.74653e-015
lhumerus 67.2407 26.2171 35.311
lradius 115.888
lwrist 98.7807
lhand 5.08977 27.1791
lfingers 7.12502
lthumb 30.4556 54.6829
rfemur -12.827 8.75716 16.399
rtibia 18.6394
rfoot -14.6312 -26.9422
rtoes -10.2013
lfemur -6.23266 -22.2028 -12.4116
ltibia -1.59028e-014
lfoot -5.65361 16.8518
ltoes -23.2496
